<?xml version="1.0" encoding="UTF-8" standalone="no"?>
<svg xmlns:xlink="http://www.w3.org/1999/xlink" id="wave" style="transform:rotate(0deg); transition: 0.3s" viewBox="0 0 1440 490" version="1.1" xmlns="http://www.w3.org/2000/svg"><defs><linearGradient id="sw-gradient-0" x1="0" x2="0" y1="1" y2="0"><stop stop-color="rgba(40, 40, 40, 1)" offset="0%"/><stop stop-color="rgba(40, 40, 40, 1)" offset="100%"/></linearGradient></defs><path style="transform:translate(0, 0px); opacity:1" fill="url(#sw-gradient-0)" d="M0,49L80,89.8C160,131,320,212,480,212.3C640,212,800,131,960,122.5C1120,114,1280,180,1440,204.2C1600,229,1760,212,1920,187.8C2080,163,2240,131,2400,138.8C2560,147,2720,196,2880,196C3040,196,3200,147,3360,147C3520,147,3680,196,3840,245C4000,294,4160,343,4320,326.7C4480,310,4640,229,4800,204.2C4960,180,5120,212,5280,261.3C5440,310,5600,376,5760,375.7C5920,376,6080,310,6240,261.3C6400,212,6560,180,6720,196C6880,212,7040,278,7200,285.8C7360,294,7520,245,7680,187.8C7840,131,8000,65,8160,32.7C8320,0,8480,0,8640,8.2C8800,16,8960,33,9120,32.7C9280,33,9440,16,9600,81.7C9760,147,9920,294,10080,343C10240,392,10400,343,10560,277.7C10720,212,10880,131,11040,130.7C11200,131,11360,212,11440,253.2L11520,294L11520,490L11440,490C11360,490,11200,490,11040,490C10880,490,10720,490,10560,490C10400,490,10240,490,10080,490C9920,490,9760,490,9600,490C9440,490,9280,490,9120,490C8960,490,8800,490,8640,490C8480,490,8320,490,8160,490C8000,490,7840,490,7680,490C7520,490,7360,490,7200,490C7040,490,6880,490,6720,490C6560,490,6400,490,6240,490C6080,490,5920,490,5760,490C5600,490,5440,490,5280,490C5120,490,4960,490,4800,490C4640,490,4480,490,4320,490C4160,490,4000,490,3840,490C3680,490,3520,490,3360,490C3200,490,3040,490,2880,490C2720,490,2560,490,2400,490C2240,490,2080,490,1920,490C1760,490,1600,490,1440,490C1280,490,1120,490,960,490C800,490,640,490,480,490C320,490,160,490,80,490L0,490Z"/></svg>